<svg xmlns="http://www.w3.org/2000/svg" viewBox="0 0 995.7 657">
  <path d="M891.9 449.6a361.7 361.7 0 01-17 100l-.7 2.3h-63l.2-2.3c4.2-48.3 28.4-342.4-.5-392.7 2.5 4 85.9 139.2 81 292.7z" fill="#e6e6e6"/>
  <path d="M887.1 549.6l-1.6 2.3h-47.3l1.3-2.3c7.8-14 30.9-56.3 52.4-100 23-47 44.2-95.7 42.4-113.3.6 4 16.5 125.3-47.2 213.3zM176.4 555.9H87.6c0-.4-.2-.7-.3-1l-.7-2v-.2l-2-6.2q-5-16.1-8.7-32.3a97.8 97.8 0 0047.9 15.1l-2.5-4.5L68 472q-2-13.6-3.2-27l82 82a86 86 0 003.6-1 90.6 90.6 0 0022.7-9.5l2.2 27.3.8 8.9v.2a166.4 166.4 0 00.3 3z" fill="#e6e6e6"/>
  <path d="M171.6 498q-2.2 1.7-4.5 3.2a72.3 72.3 0 01-15.3 7.4L70.3 427l-7.2-7.2-.3-8-.3-12.8A75.4 75.4 0 01120 363c2.3-.2 4.5-.3 6.8-.3a74.3 74.3 0 0123 3.6 75.2 75.2 0 0113.5 5.9c1.2 23 2.6 45 4 65.5h-7.1v16.7h8.2l2 26.7 1.2 17zM162 346.7q0 3.2.2 6.3A91.4 91.4 0 0063 372.3q.6-16.9 2.1-33.5C81.2 156 172.2 7.3 176.7 0c-23 40.4-22 191-15.8 326.1l1 20.6z" fill="#e6e6e6"/>
  <path d="M70.3 427L63 420l-7.2-7.2a76.8 76.8 0 013.4-7.8l3.5 7 7.5 15.2z" fill="#e6e6e6"/>
  <path d="M138.3 555.9H71.8a86.8 86.8 0 01-2.2-3l-.1-.2q-8.6-11.8-15.8-24.1c-21-35.7-34-73.8-42-110.1a521 521 0 01-8.7-166c-1.8 18.5 14.2 61 35.8 108.7a1541 1541 0 0012 25.8 91.3 91.3 0 00-13.2 30.7l57.1 57.1c10 19 19.1 36.2 26.6 50L68 472l-33-32.6a90.5 90.5 0 0026.8 63.4 87 87 0 0014.1 11.4 97.8 97.8 0 0047.9 15.1 3087.6 3087.6 0 0012.9 23.6l.6 1 .5 1 .5 1z" fill="#e6e6e6"/>
  <path fill="#2f2e41" d="M6.7 552.9h984v2H6.7z"/>
  <path d="M561.3 483.2H503v23.4h30.8c-5 15.8-16.7 26.7-38.3 26.7-24.2 0-41.7-20-41.7-44.2s16.6-45 40.8-45a45 45 0 0135 17.4l19.2-12.5a66 66 0 00-54.2-27.5 67 67 0 00-66.7 67.6 66.3 66.3 0 0044.1 63.8 64 64 0 007 2 71 71 0 0031.2 0 64.1 64.1 0 007-2 66.3 66.3 0 0044.1-63.8c.9-2.5 0-4.2 0-5.9zM969.1 469l-23.4 47.6-22.7-41.9-3.1-5.7h-27.5l20 35.5 20 35.4-6.9 13-1 2-22.1 41.7H929L951 555l1-2 43.8-83.9zm-80.3 19a40.2 40.2 0 00-10-12.4 39.4 39.4 0 00-25.6-9c-6.7 0-18.4 1.6-26.7 13.3v-67.6H803v140.1h22.5v-10.8a32 32 0 0012.3 10.3l2.4 1a33.4 33.4 0 009.7 2 35.2 35.2 0 004.8 0 43 43 0 0011.1-2l2.7-1a38.1 38.1 0 006.8-3.6 43.8 43.8 0 0018.6-37.6 49.2 49.2 0 00-5.2-22.6zM848 534h-.7c-14.1 0-23.3-10-23.3-23.3s9.2-23.3 23.3-23.3c9.1 0 16.1 4 20 10.5a24.5 24.5 0 013.4 12.8c0 13.1-9.7 23-22.7 23.4zm-60.7-23.3c-4.2-6.6-14.2-9.1-20.9-11.6l-5.8-1.7c-6.7-2.5-7.5-5-7.5-7.5 0-4.2 3.3-6.7 9.2-6.7 2.5 0 7.5.9 13.3 5.9l11.7-13.4a42 42 0 00-26.7-9.2c-6.7 0-15 .9-21.7 5.9a27.4 27.4 0 00-8.3 19.2 21.4 21.4 0 006.7 15.8c5 5 11.6 7.5 17.5 10l5 1.7c3.3.8 7.5 3.3 7.5 8.3 0 5.9-5 9.2-11.7 9.2s-13.3-5-18.3-10l-12.5 14.2c4 4 9.6 9.2 18.5 12a44.2 44.2 0 0011.2 2 48.9 48.9 0 005.1 0 37.4 37.4 0 0010.5-2 36.2 36.2 0 0012.2-7 26.7 26.7 0 009.2-20.9 23.9 23.9 0 00-4.2-14.2zM704.7 469v-28.3h-23.3V469h-9.2v20h9.2v63.4h23.3v-63.3h15.9v-20zm-70 0V480c-7.5-12.5-20-13.4-26.7-13.4-24.2 0-40.8 19.2-40.8 44.2 0 19.6 10.9 36.5 28.8 42.2a43.6 43.6 0 0011.1 2 43.6 43.6 0 005.5 0 30.1 30.1 0 009.6-2c4.5-1.8 9.2-5.2 13.3-11.3v10.8H659V469zm-19.2 65c-14.1 0-23.3-10-23.3-23.3s10-23.3 23.3-23.3c14.2 0 23.4 10 23.4 23.3s-10 23.4-23.4 23.4z"/>
  <path d="M168.4 454.4l2 26.7 1.2 17a73.6 73.6 0 008.4-7.3 76.4 76.4 0 0020.2-36.4zM62.8 412l-.3-13q-1.7 2.9-3.2 5.9a76.8 76.8 0 00-3.4 7.8l7.2 7.2-.3-8zm105.6 42.4l2 26.7 1.2 17a73.6 73.6 0 008.4-7.3 76.4 76.4 0 0020.2-36.4zm0 0l2 26.7 1.2 17a73.6 73.6 0 008.4-7.3 76.4 76.4 0 0020.2-36.4zM62.5 399q-1.7 2.8-3.2 5.8a76.8 76.8 0 00-3.4 7.8l7.2 7.2-.3-8-.3-12.8zM235 394a117.7 117.7 0 00-74-67.9 116.1 116.1 0 00-96 12.7 118 118 0 00-26.2 22.4 116.3 116.3 0 0015 167.4 117 117 0 0030.8 18 115.7 115.7 0 0042.2 7.9q5.3 0 10.5-.5 4.4-.4 8.7-1.1a114.3 114.3 0 0029.3-9 117.8 117.8 0 0061.2-66.3 114.7 114.7 0 005.8-23.2A116.1 116.1 0 00235 394zM76 514.2a87 87 0 01-14.2-11.4A90.5 90.5 0 0135 439.4L68 472l53.2 52.8 4.7 4.6h-2.2a97.8 97.8 0 01-47.9-15.2zm141-59.8a91.4 91.4 0 01-25.5 47.9 93.1 93.1 0 01-12.7 10.6 89 89 0 01-5.7 3.6 90.6 90.6 0 01-22.7 9.5 86 86 0 01-3.6 1L37.6 417.6A91.3 91.3 0 0150.7 387 93 93 0 0163 372.3a91 91 0 0163.9-26.3 91.2 91.2 0 0153.4 17 93.6 93.6 0 0120.8 20.5l-12.5 10.9a79.3 79.3 0 00-25.2-22.2 75.2 75.2 0 00-13.6-6 74.3 74.3 0 00-22.9-3.5c-2.3 0-4.5 0-6.8.3a75.4 75.4 0 00-57.5 36q-1.7 2.9-3.2 5.9a76.8 76.8 0 00-3.4 7.8l7.2 7.2 7.2 7.2 81.5 81.5a72.3 72.3 0 0015.3-7.4l4.5-3.1a73.6 73.6 0 008.4-7.3 76.4 76.4 0 0020.2-36.4h-40v-16.7h58.3a89.9 89.9 0 01-1.5 16.7zm-48.6 0l2 26.7 1.2 17a73.6 73.6 0 008.4-7.3 76.4 76.4 0 0020.2-36.4zm0 0l2 26.7 1.2 17a73.6 73.6 0 008.4-7.3 76.4 76.4 0 0020.2-36.4z" fill="#639"/>
  <path fill="#ffb8b8" d="M332.4 648.7l33.6-5.3-13.8-14.5h-19.8v19.8z"/>
  <path d="M338.8 656.7l33.3-11a6.5 6.5 0 003.7-9 6.5 6.5 0 00-6.2-3.5l-7.5.5-3-1.7a1.7 1.7 0 00-2.4 2.2l2.7 6.6-27.7-2-1.3 11a6.5 6.5 0 008.4 7z" fill="#2f2e41"/>
  <path d="M241 632.2l34.8 9.2c-6.4-13.4-10.3-25.2-7.9-33l-16.4-2z" fill="#ffb8b8"/>
  <path d="M243 643.9l36.2 2.3a6.7 6.7 0 007.1-7.2 6.7 6.7 0 00-4.6-5.8l-7.4-2.5-2.2-2.7a1.8 1.8 0 00-3.2 1.1v7.4L243.3 624l-5.6 10a6.7 6.7 0 005.5 9.9z" fill="#2f2e41"/>
  <circle cx="357.4" cy="202" r="24.4" fill="#ffb8b8"/>
  <path d="M318.7 233.7L347 255c4.6-17.4 10-29.8 17.2-33l-28.2-16.5z" fill="#ffb8b8"/>
  <path fill="#2f2e41" d="M245.9 606.2l24 10.3 55.7-131.3 4.5 146 24-1.3L381 401.1l-2-13.1-91 20.3-1.5 73.5L246 606.2zM385 194.9s-15.7-14.5-20.6-8.3-6.1 7.6-8.9 7.6-9.6 7.5-9.6 7.5-3.4-6.8-7.6-1.3-4.8 13.7-4.8 13.7-15.1-35 11.7-41.9 46 14.4 39.9 22.7z"/>
  <path d="M281.6 419.3c13-5.8 13.5-1.3 32.3 6.1 23.8 3 38.9 3.4 46.4-6.5 3.1-19.5 5.6-38.3 7.2-56.1l.8-11c2.8-42-.6-78.4-15.9-107.8L325 223.4l-9 6.5c-21.4 15.6-18 39.4-20.9 65.7z" fill="#639"/>
  <path fill="#ffb8b8" d="M364.8 413l14.4-12.3-1.4-12.4h-13v24.8z"/>
  <path d="M326.7 289s-40.6 53-11.6 77 45.2 39.2 45.2 39.2-1.7-103.8-33.6-116.2z" opacity=".2"/>
  <path d="M342.5 342l25 20.8.8-11-17-75.8z" opacity=".2"/>
  <path d="M360.7 404.8l19.9-15.8-26.1-66-.6-68.7a15.7 15.7 0 00-10.4-14.6 15.7 15.7 0 00-21 14.5l-1 79.8z" fill="#639"/>
</svg>
