<svg xmlns="http://www.w3.org/2000/svg" viewBox="0 0 104 104"><path d="M104 52A52 52 0 110 52a52 52 0 01104 0z" fill="#fff"/><path fill-rule="evenodd" clip-rule="evenodd" d="M52 104A52 52 0 1052 0a52 52 0 000 104z" fill="#fff"/><path d="M99.9 51.9a48 48 0 11-96 0 48 48 0 0196 0z" fill="#362066"/><path fill-rule="evenodd" clip-rule="evenodd" d="M51.9 99.9a48 48 0 100-96 48 48 0 000 96z" fill="#362066"/><path d="M9.52 52.42a42.65 42.65 0 0042.57 42.73 42.65 42.65 0 0042.56-42.73c0-16.2-9.14-29.64-23.02-29.64-9.98 0-16.15 5.33-19.54 14.18-3.4-8.85-9.57-14.18-19.55-14.18-13.88 0-23.02 13.44-23.02 29.64z" fill="#fff"/><path d="M40.26 79.01l.36-2.39c3.62 3.37 9.93 4.83 14.55 4.83 4.62 0 10.93-1.46 14.55-4.83l.36 2.4c-1.45 2.69-6.45 7.42-14.91 7.42s-13.46-4.73-14.91-7.43z" fill="#362066"/><path fill-rule="evenodd" clip-rule="evenodd" d="M5.51 63.78l1.76 1.85c3.27 12.19 12.86 14.89 20.94 12.72 14.38-3.85 17.36-9.29 18.52-14.44.28-1.26.46-2.59.64-3.9.57-4.07 1.11-7.95 4.4-8.83 3.27-.88 5.68 2.21 8.2 5.45.82 1.05 1.65 2.1 2.52 3.05 3.57 3.9 8.87 7.11 23.25 3.26 8.08-2.17 15.04-9.3 11.78-21.5l.6-2.47-.37-10.23c-2.7.16-12.6 1.7-19.38 3.5-8.48 2.28-12.5 4.62-16.6 7.4-3.3 2.24-8.19 4.94-11.54 5.84-3.35.9-8.93 1-12.9.71-4.95-.36-9.6-.37-18.07 1.9C12.48 49.9 3.13 53.53.7 54.74l4.8 9.04zm6.16-1.44c-1.32-4.91 2.54-7.84 8.06-9.32C31.75 49.8 40.57 50.38 42 55.69c2.37 8.85-1.35 14.27-12.68 17.31-8.67 2.32-15.11-1.22-17.64-10.66zm80.4-21.54c-1.32-4.91-6.13-5.52-11.65-4.04-12.02 3.22-19.36 8.13-17.94 13.44 2.37 8.85 8.3 11.69 19.64 8.65 8.67-2.32 12.47-8.61 9.94-18.05z" fill="#362066"/></svg>
