<svg xmlns="http://www.w3.org/2000/svg" viewBox="0 0 100 125">
  <path d="M92.043 13.522h-73.1a2.96 2.96 0 00-2.957 2.957v8.027H7.957A2.962 2.962 0 005 27.464v56.057a2.96 2.96 0 002.957 2.957h73.1a2.96 2.96 0 002.957-2.957v-8.027h8.027a2.96 2.96 0 002.957-2.957V16.479a2.957 2.957 0 00-2.955-2.957zm-81.128 16.9H78.1v10.436H10.915V30.422zM78.1 80.563H10.915V46.772H78.1v33.791zm10.985-10.985h-5.07V27.464a2.96 2.96 0 00-2.957-2.957H21.9v-5.07h67.185v50.141z"/>
  <circle cx="16.25" cy="35.757" r="2.627"/>
  <circle cx="23.373" cy="35.757" r="2.627"/>
  <circle cx="30.438" cy="35.757" r="2.627"/>
</svg>
